<?xml version="1.0" encoding="UTF-8"?>
<svg version="1.1" xmlns="http://www.w3.org/2000/svg" width="512" height="512">
<path d="M0 0 C9.17977737 7.24162859 14.02018751 17.79751885 15.66015625 29.16796875 C16.61170692 42.86307141 11.60441152 54.10222838 6.29403687 66.41592407 C4.95031117 69.53229145 3.62485939 72.65587924 2.30395508 75.78198242 C0.45715692 80.14928902 -1.39607223 84.51376932 -3.25488281 88.87597656 C-7.42250324 98.66552272 -11.54068281 108.47545632 -15.62722778 118.29910278 C-16.88837192 121.32197922 -18.16152097 124.33960916 -19.43530273 127.35717773 C-20.20227283 129.19619643 -20.96866287 131.03545717 -21.734375 132.875 C-22.09167694 133.71336395 -22.44897888 134.55172791 -22.81710815 135.41549683 C-23.1337442 136.18306305 -23.45038025 136.95062927 -23.77661133 137.74145508 C-24.0560408 138.40720047 -24.33547028 139.07294586 -24.62336731 139.75886536 C-25.32035638 141.76129949 -25.32035638 141.76129949 -24.08984375 144.54296875 C-22.19916563 145.94270606 -22.19916563 145.94270606 -19.8046875 147.1875 C-18.89420654 147.69200684 -17.98372559 148.19651367 -17.0456543 148.71630859 C-16.04961182 149.25723145 -15.05356934 149.7981543 -14.02734375 150.35546875 C-11.90669005 151.52969451 -9.78692468 152.70552578 -7.66796875 153.8828125 C-6.57419922 154.48851074 -5.48042969 155.09420898 -4.35351562 155.71826172 C1.71056568 159.10866744 7.69364134 162.63698894 13.68237305 166.15820312 C18.4632573 168.96404502 23.25252667 171.74852149 28.088974 174.45782471 C29.84744784 175.44300726 31.6030856 176.43308251 33.3581543 177.42431641 C35.56868638 178.66997494 37.78464739 179.9060712 40.00708008 181.13037109 C52.62409705 188.2707214 63.20898253 197.28447208 67.38671875 211.5625 C67.55945313 212.21605469 67.7321875 212.86960937 67.91015625 213.54296875 C68.13703125 214.34734375 68.36390625 215.15171875 68.59765625 215.98046875 C70.36049 230.43570553 66.21816764 241.50148576 58.03515625 253.23046875 C55.6077307 255.8720789 52.9772585 258.13098955 50.25 260.45703125 C47.52894096 262.88281677 44.96680098 265.44715353 42.41015625 268.04296875 C38.74202516 271.76175945 34.9786405 275.2796707 31.00390625 278.66796875 C28.37030098 281.02642123 25.89189111 283.52742279 23.41015625 286.04296875 C19.74168044 289.7614238 15.97866396 293.2796507 12.00390625 296.66796875 C8.86495278 299.47897186 5.93664944 302.49564672 2.97875977 305.49389648 C-0.24350823 308.74297482 -3.5832502 311.76740738 -7.0625 314.734375 C-9.50413009 316.91255367 -11.79032407 319.21544883 -14.08984375 321.54296875 C-16.98576333 324.47415066 -19.89226946 327.30700049 -23.02734375 329.98046875 C-26.37909471 332.8446923 -29.49540792 335.90630968 -32.58984375 339.04296875 C-36.25831595 342.76142865 -40.02133601 346.27965067 -43.99609375 349.66796875 C-46.62969902 352.02642123 -49.10810889 354.52742279 -51.58984375 357.04296875 C-55.25831956 360.7614238 -59.02133604 364.2796507 -62.99609375 367.66796875 C-65.62969902 370.02642123 -68.10810889 372.52742279 -70.58984375 375.04296875 C-74.25831956 378.7614238 -78.02133604 382.2796507 -81.99609375 385.66796875 C-84.62971152 388.02643243 -87.10790303 390.52761404 -89.58984375 393.04296875 C-93.35447845 396.8534035 -97.1831164 400.52617976 -101.26953125 403.9921875 C-102.46436774 405.01010614 -103.63756941 406.05409523 -104.78515625 407.125 C-113.98582246 415.57677478 -124.90137167 419.06917762 -137.26171875 418.79296875 C-149.18342931 417.73911588 -159.98952977 412.3439428 -168.08984375 403.54296875 C-175.74670577 393.09706876 -179.33871956 381.26443238 -177.5625 368.328125 C-175.98788535 359.49365113 -172.23485139 351.49104456 -168.71484375 343.29296875 C-167.96664358 341.52287832 -167.21984936 339.75219305 -166.47436523 337.98095703 C-164.8771046 334.19013185 -163.27326679 330.40218864 -161.66455078 326.61621094 C-157.56839096 316.96714661 -153.52864273 307.2944532 -149.4911499 297.62072754 C-148.17040077 294.46116566 -146.84366648 291.30416895 -145.51611328 288.14746094 C-144.698057 286.19343689 -143.88017716 284.23933897 -143.0625 282.28515625 C-142.68927109 281.40143341 -142.31604218 280.51771057 -141.9315033 279.60720825 C-139.99652975 274.96756349 -138.35518754 270.40954919 -137.08984375 265.54296875 C-146.90859462 259.73103404 -156.76511551 253.98766517 -166.65234375 248.29296875 C-175.45121826 243.22202656 -184.24721982 238.14632503 -193.02734375 233.04296875 C-194.45445679 232.21684082 -194.45445679 232.21684082 -195.91040039 231.37402344 C-211.47237168 222.31369915 -223.82345602 214.98766352 -229.90234375 197.16015625 C-232.83709206 185.78800656 -231.24274712 174.31010503 -225.90234375 163.91796875 C-221.56186482 156.64051905 -215.65074734 150.85424218 -209.22265625 145.421875 C-206.73368646 143.22921114 -204.41914555 140.90432516 -202.08984375 138.54296875 C-199.19392417 135.61178684 -196.28741804 132.77893701 -193.15234375 130.10546875 C-189.80059279 127.2412452 -186.68427958 124.17962782 -183.58984375 121.04296875 C-179.92137155 117.32450885 -176.15835149 113.80628683 -172.18359375 110.41796875 C-169.04464028 107.60696564 -166.11633694 104.59029078 -163.15844727 101.59204102 C-159.93617927 98.34296268 -156.5964373 95.31853012 -153.1171875 92.3515625 C-150.67555741 90.17338383 -148.38936343 87.87048867 -146.08984375 85.54296875 C-143.19392417 82.61178684 -140.28741804 79.77893701 -137.15234375 77.10546875 C-133.80059279 74.2412452 -130.68427958 71.17962782 -127.58984375 68.04296875 C-123.92137155 64.32450885 -120.15835149 60.80628683 -116.18359375 57.41796875 C-113.04464028 54.60696564 -110.11633694 51.59029078 -107.15844727 48.59204102 C-103.93617927 45.34296268 -100.5964373 42.31853012 -97.1171875 39.3515625 C-94.67555741 37.17338383 -92.38936343 34.87048867 -90.08984375 32.54296875 C-87.19392417 29.61178684 -84.28741804 26.77893701 -81.15234375 24.10546875 C-77.80054846 21.24120732 -74.68481905 18.17913294 -71.58984375 15.04296875 C-67.25454371 10.66174549 -62.82939142 6.48467674 -58.08984375 2.54296875 C-57.39503906 1.93582031 -56.70023438 1.32867187 -55.984375 0.703125 C-39.18812641 -13.35815922 -17.39528302 -12.12792629 0 0 Z " fill="#000000" transform="translate(337.08984375,51.45703125)"/>
</svg>
